<svg width="48px" height="48px" viewBox="0 0 48 48" version="1.1" xmlns="http://www.w3.org/2000/svg" xmlns:xlink="http://www.w3.org/1999/xlink">
    <!-- Generator: Sketch 48.2 (47327) - http://www.bohemiancoding.com/sketch -->
    <title>ic_folder_open_black_48px</title>
    <desc>Created with Sketch.</desc>
    <defs></defs>
    <g id="Page-1" stroke="none" stroke-width="1" fill="none" fill-rule="evenodd">
        <g id="ic_folder_open_black_48px">
            <polygon id="Shape" points="0 0 48 0 48 48 0 48"></polygon>
            <path d="M44,16 L12,16 C9.8,16 8,17.8 8,20 L6.05102981,39.4897019 C4.82972614,38.8029506 4,37.4936671 4,36 L4.02,12 C4.02,9.8 5.8,8 8,8 L20,8 L24,12 L40,12 C42.2,12 44,13.8 44,16 Z M12.0099749,18 L43.8099344,18 C44.9145039,18 45.8099344,18.8954305 45.8099344,20 C45.8099344,20.0604503 45.8071937,20.1208695 45.8017208,20.1810715 L44.3307143,36.362143 C44.1434128,38.4224596 42.4159543,40 40.3471414,40 L8,40 L10.0199006,19.8009926 C10.1221409,18.778589 10.982472,18 12.0099749,18 Z" id="folder-03" fill="#000000" fill-rule="nonzero"></path>
        </g>
    </g>
</svg>
